<svg xmlns="http://www.w3.org/2000/svg" width="1000" height="560" viewBox="0 0 1000 560"><rect width="100%" height="100%" fill="#ffffff"/><text x="110" y="38" font-family="Aptos, Arial" font-size="26" font-weight="700" fill="#25313d">Short upright cases: 200 Hz vs 500 Hz long</text><line x1="110" y1="450" x2="960" y2="450" stroke="#9aa8b4"/><line x1="110" y1="70" x2="110" y2="450" stroke="#9aa8b4"/><line x1="110" y1="450" x2="960" y2="450" stroke="#e8edf2"/><text x="98" y="455" text-anchor="end" font-family="Aptos, Arial" font-size="14" fill="#596b7a">0.00</text><line x1="110" y1="355" x2="960" y2="355" stroke="#e8edf2"/><text x="98" y="360" text-anchor="end" font-family="Aptos, Arial" font-size="14" fill="#596b7a">0.42</text><line x1="110" y1="260" x2="960" y2="260" stroke="#e8edf2"/><text x="98" y="265" text-anchor="end" font-family="Aptos, Arial" font-size="14" fill="#596b7a">0.84</text><line x1="110" y1="165" x2="960" y2="165" stroke="#e8edf2"/><text x="98" y="170" text-anchor="end" font-family="Aptos, Arial" font-size="14" fill="#596b7a">1.25</text><line x1="110" y1="70" x2="960" y2="70" stroke="#e8edf2"/><text x="98" y="75" text-anchor="end" font-family="Aptos, Arial" font-size="14" fill="#596b7a">1.67</text><rect x="130.23809523809524" y="261.7214193612874" width="36.476190476190474" height="188.2785806387126" fill="#0b4f6c" rx="3"/><text x="148.47619047619048" y="255.72141936128742" text-anchor="middle" font-family="Aptos, Arial" font-size="12" fill="#25313d">0.83</text><rect x="170.71428571428572" y="110.71428571428578" width="36.476190476190474" height="339.2857142857142" fill="#2a9d8f" rx="3"/><text x="188.95238095238096" y="104.71428571428578" text-anchor="middle" font-family="Aptos, Arial" font-size="12" fill="#25313d">1.49</text><text x="170.71428571428572" y="478" text-anchor="middle" font-family="Aptos, Arial" font-size="14" fill="#25313d">-45 deg</text><rect x="251.66666666666669" y="423.9662612915122" width="36.476190476190474" height="26.033738708487835" fill="#0b4f6c" rx="3"/><text x="269.9047619047619" y="417.9662612915122" text-anchor="middle" font-family="Aptos, Arial" font-size="12" fill="#25313d">0.11</text><rect x="292.14285714285717" y="281.52682114990193" width="36.476190476190474" height="168.4731788500981" fill="#2a9d8f" rx="3"/><text x="310.3809523809524" y="275.52682114990193" text-anchor="middle" font-family="Aptos, Arial" font-size="12" fill="#25313d">0.74</text><text x="292.14285714285717" y="478" text-anchor="middle" font-family="Aptos, Arial" font-size="14" fill="#25313d">-20 deg</text><rect x="373.09523809523813" y="433.47532175309857" width="36.476190476190474" height="16.524678246901406" fill="#0b4f6c" rx="3"/><text x="391.33333333333337" y="427.47532175309857" text-anchor="middle" font-family="Aptos, Arial" font-size="12" fill="#25313d">0.07</text><rect x="413.5714285714286" y="445.46635290860723" width="36.476190476190474" height="4.5336470913927425" fill="#2a9d8f" rx="3"/><text x="431.80952380952385" y="439.46635290860723" text-anchor="middle" font-family="Aptos, Arial" font-size="12" fill="#25313d">0.02</text><text x="413.5714285714286" y="478" text-anchor="middle" font-family="Aptos, Arial" font-size="14" fill="#25313d">-5 deg</text><rect x="494.5238095238095" y="436.95013323440816" width="36.476190476190474" height="13.049866765591839" fill="#0b4f6c" rx="3"/><text x="512.7619047619047" y="430.95013323440816" text-anchor="middle" font-family="Aptos, Arial" font-size="12" fill="#25313d">0.06</text><rect x="535" y="446.62913722036944" width="36.476190476190474" height="3.3708627796305755" fill="#2a9d8f" rx="3"/><text x="553.2380952380952" y="440.62913722036944" text-anchor="middle" font-family="Aptos, Arial" font-size="12" fill="#25313d">0.01</text><text x="535" y="478" text-anchor="middle" font-family="Aptos, Arial" font-size="14" fill="#25313d">0 deg</text><rect x="615.952380952381" y="439.4492988276112" width="36.476190476190474" height="10.550701172388793" fill="#0b4f6c" rx="3"/><text x="634.1904761904761" y="433.4492988276112" text-anchor="middle" font-family="Aptos, Arial" font-size="12" fill="#25313d">0.05</text><rect x="656.4285714285714" y="447.14781775008623" width="36.476190476190474" height="2.8521822499137492" fill="#2a9d8f" rx="3"/><text x="674.6666666666666" y="441.14781775008623" text-anchor="middle" font-family="Aptos, Arial" font-size="12" fill="#25313d">0.01</text><text x="656.4285714285714" y="478" text-anchor="middle" font-family="Aptos, Arial" font-size="14" fill="#25313d">5 deg</text><rect x="737.3809523809523" y="425.60401663663555" width="36.476190476190474" height="24.39598336336447" fill="#0b4f6c" rx="3"/><text x="755.6190476190475" y="419.60401663663555" text-anchor="middle" font-family="Aptos, Arial" font-size="12" fill="#25313d">0.11</text><rect x="777.8571428571428" y="289.30905173535734" width="36.476190476190474" height="160.69094826464263" fill="#2a9d8f" rx="3"/><text x="796.095238095238" y="283.30905173535734" text-anchor="middle" font-family="Aptos, Arial" font-size="12" fill="#25313d">0.71</text><text x="777.8571428571428" y="478" text-anchor="middle" font-family="Aptos, Arial" font-size="14" fill="#25313d">20 deg</text><rect x="858.8095238095237" y="254.5260340335735" width="36.476190476190474" height="195.4739659664265" fill="#0b4f6c" rx="3"/><text x="877.0476190476189" y="248.5260340335735" text-anchor="middle" font-family="Aptos, Arial" font-size="12" fill="#25313d">0.86</text><rect x="899.2857142857142" y="282.6321790569708" width="36.476190476190474" height="167.36782094302916" fill="#2a9d8f" rx="3"/><text x="917.5238095238094" y="276.6321790569708" text-anchor="middle" font-family="Aptos, Arial" font-size="12" fill="#25313d">0.74</text><text x="899.2857142857142" y="478" text-anchor="middle" font-family="Aptos, Arial" font-size="14" fill="#25313d">45 deg</text><rect x="110" y="520" width="18" height="18" fill="#0b4f6c" rx="2"/><text x="136" y="535" font-family="Aptos, Arial" font-size="16" fill="#25313d">200 Hz theta2 IAE</text><rect x="300" y="520" width="18" height="18" fill="#2a9d8f" rx="2"/><text x="326" y="535" font-family="Aptos, Arial" font-size="16" fill="#25313d">500 Hz theta2 IAE</text></svg>